<?xml version="1.0" encoding="utf-8"?>
<!-- Generator: Adobe Illustrator 22.0.1, SVG Export Plug-In . SVG Version: 6.00 Build 0)  -->
<svg version="1.1" id="Layer_1" xmlns="http://www.w3.org/2000/svg" xmlns:xlink="http://www.w3.org/1999/xlink" x="0px" y="0px"
	 viewBox="0 0 98.3 45" style="enable-background:new 0 0 98.3 45;" xml:space="preserve">
<style type="text/css">
	.st0{fill:#FFFFFF;}
</style>
<g>
	<path class="st0" d="M95.2,17.2c0.6-0.9,0.4-2.2-0.6-2.8c0,0-5.6-3.7-14.1-7.6c-13.2-6-23.1-7-30.3-3.2C46,6,40.9,11.1,40.9,22.2
		c0,2.9-0.6,4.2-1,4.4C36.1,28.7,12,16.5,12,16.5c-1-0.5-2.3-0.2-2.9,0.8l-6.6,9.9c-0.6,0.9-0.4,2.2,0.6,2.8c0,0,5.6,3.7,14.1,7.6
		c8,3.6,18.6,5.2,18.6,5.2c1.1,0.2,2.9,0.2,4,0.1c0,0,4.9-0.5,7.7-2c4.3-2.3,9.4-7.4,9.4-18.5c0-2.9,0.6-4.2,1-4.4
		c3.8-2,27.9,10.2,27.9,10.2c1,0.5,2.3,0.2,2.9-0.8L95.2,17.2z"/>
</g>
</svg>
